#!OML:ASF I:\Actors\actors\Patient Classification 2\Patient 1\Session 1\actor1.ASF
:FULLY-SPECIFIED
:DEGREES
764
root -1.14618 18.1108 5.59346 -3.35063 -2.53745 -3.38632
lowerback 13.6952 -1.43987 3.55609
upperback 3.50151 -1.33081 1.73582
thorax -4.02033 -0.681586 0.0366398
lowerneck 2.70931 -2.15969 -0.813018
upperneck 43.9748 -5.31999 4.69969
head 15.2755 -1.96851 1.58288
rclavicle 8.44835e-016 -5.96354e-015
rhumerus 36.059 -24.2726 -26.1761
rradius 128.328
rwrist -57.0545
rhand 8.41509 -14.864
rfingers 7.12502
rthumb 33.6216 -401.731
lclavicle 8.44835e-016 -5.96354e-015
lhumerus 28.0015 -3.8064 39.3989
lradius 125.487
lwrist 66.8506
lhand -12.4648 -36.7466
lfingers 7.12502
lthumb 13.609 -7.21148
rfemur 14.7816 -3.56358 18.8621
rtibia -4.62464
rfoot -13.4381 -9.39036
rtoes 5.60841
lfemur 20.7077 -3.30406 -13.2465
ltibia -18.4654
lfoot -1.5836 16.7613
ltoes -15.0149
765
root -1.13932 18.1159 5.60293 -3.10426 -2.47431 -3.40817
lowerback 13.5597 -1.38492 3.14403
upperback 3.23907 -1.31375 1.72316
thorax -4.2141 -0.673872 0.253358
lowerneck 2.7348 -2.20442 -1.01772
upperneck 44.2066 -5.39989 4.74478
head 15.4098 -2.03117 1.63592
rclavicle -3.80176e-015 5.56597e-015
rhumerus 35.2422 -24.9161 -28.9391
rradius 130.565
rwrist -57.1931
rhand 7.55744 -14.131
rfingers 7.12502
rthumb 32.8061 -401.172
lclavicle -3.80176e-015 5.56597e-015
lhumerus 27.753 -3.97554 40.3068
lradius 126.55
lwrist 65.099
lhand -13.1658 -38.5496
lfingers 7.12502
lthumb 12.9334 -8.97037
rfemur 14.3039 -3.63423 18.8904
rtibia -4.16187
rfoot -13.6219 -9.24346
rtoes 5.5481
lfemur 20.4518 -3.57863 -13.2926
ltibia -18.4216
lfoot -1.71201 16.9544
ltoes -15.2013
766
root -1.13417 18.1197 5.61342 -2.87115 -2.48874 -3.43519
lowerback 13.0862 -1.33752 2.59615
upperback 3.15964 -1.34132 1.7894
thorax -4.0263 -0.682259 0.625324
lowerneck 2.49886 -2.11701 -1.11642
upperneck 44.2991 -5.22493 4.63535
head 15.5006 -1.98121 1.62348
rclavicle -2.02015e-014 2.38542e-015
rhumerus 34.1359 -24.4035 -30.6189
rradius 131.55
rwrist -57.9022
rhand 5.66826 -12.4816
rfingers 7.12502
rthumb 31.0072 -399.882
lclavicle -2.02015e-014 2.38542e-015
lhumerus 27.2693 -4.54505 40.2963
lradius 127.303
lwrist 63.968
lhand -12.4486 -36.4405
lfingers 7.12502
lthumb 13.6247 -6.90639
rfemur 13.866 -3.6309 18.9425
rtibia -3.76173
rfoot -13.7567 -9.12593
rtoes 5.37378
lfemur 20.2049 -3.79147 -13.312
ltibia -18.3306
lfoot -1.85834 17.0771
ltoes -15.0686
767
root -1.12892 18.1221 5.62335 -2.70902 -2.61513 -3.47562
lowerback 12.4293 -1.28298 2.01312
upperback 3.23926 -1.36771 1.90421
thorax -3.56839 -0.689612 1.05952
lowerneck 2.04874 -1.95501 -1.05551
upperneck 44.2304 -4.88248 4.36562
head 15.5296 -1.84921 1.52462
rclavicle 9.21864e-015 -1.27222e-014
rhumerus 32.8536 -23.2434 -31.3722
rradius 131.535
rwrist -57.7498
rhand 5.02411 -15.0572
rfingers 7.12502
rthumb 30.393 -402.573
lclavicle 9.21864e-015 -1.27222e-014
lhumerus 26.6641 -5.38829 39.6431
lradius 127.448
lwrist 63.0552
lhand -11.0007 -35.3892
lfingers 7.12502
lthumb 15.0198 -5.954
rfemur 13.5821 -3.51244 19.0043
rtibia -3.54617
rfoot -13.8333 -9.06886
rtoes 5.27605
lfemur 20.0349 -4.00555 -13.3325
ltibia -18.1882
lfoot -2.1123 17.3687
ltoes -14.8041
768
root -1.12138 18.1245 5.63141 -2.57058 -2.84548 -3.48276
lowerback 11.8445 -1.20674 1.5442
upperback 3.23517 -1.34153 1.95742
thorax -3.24122 -0.674369 1.36016
lowerneck 1.71022 -1.89166 -1.05953
upperneck 43.9274 -4.72374 4.24649
head 15.4237 -1.79478 1.48006
rclavicle -1.46355e-014 1.98785e-016
rhumerus 30.8699 -20.8095 -30.9696
rradius 129.963
rwrist -57.0496
rhand 5.20442 -16.3621
rfingers 7.12502
rthumb 30.5649 -403.846
lclavicle -1.46355e-014 1.98785e-016
lhumerus 25.9945 -6.49224 38.7052
lradius 127.129
lwrist 62.5958
lhand -9.40085 -34.8933
lfingers 7.12502
lthumb 16.5605 -5.57996
rfemur 13.3644 -3.28387 19.0222
rtibia -3.44951
rfoot -13.8588 -9.0546
rtoes 5.2141
lfemur 19.9009 -4.24253 -13.4179
ltibia -18.0332
lfoot -2.41413 17.7883
ltoes -14.0391
769
root -1.10941 18.127 5.63541 -2.48387 -3.18047 -3.43181
lowerback 11.5056 -1.10887 1.23806
upperback 3.10239 -1.25708 1.89064
thorax -3.19016 -0.631435 1.44476
lowerneck 1.71771 -1.90032 -0.926432
upperneck 43.4028 -4.63988 4.0409
head 15.1208 -1.76918 1.36541
rclavicle 2.8302e-014 -1.00386e-014
rhumerus 29.0262 -18.176 -29.8879
rradius 127.932
rwrist -56.7867
rhand 5.10819 -18.1703
rfingers 7.12502
rthumb 30.4732 -405.671
lclavicle 2.8302e-014 -1.00386e-014
lhumerus 25.3077 -7.47545 37.6308
lradius 126.76
lwrist 63.2793
lhand -8.96635 -34.4972
lfingers 7.12502
lthumb 16.9788 -5.21928
rfemur 13.1984 -2.94458 18.9723
rtibia -3.41191
rfoot -13.7926 -9.1075
rtoes 4.91963
lfemur 19.8394 -4.3876 -13.5838
ltibia -17.8978
lfoot -2.68977 18.1433
ltoes -13.0418
770
root -1.09416 18.1289 5.63488 -2.48259 -3.63748 -3.40164
lowerback 11.8004 -0.962195 1.33455
upperback 2.69685 -1.04487 1.64101
thorax -3.78475 -0.526901 1.11241
lowerneck 2.07056 -1.88845 -0.824554
upperneck 43.1317 -4.61994 4.06608
head 14.8967 -1.75364 1.35866
rclavicle -1.86361e-014 -8.19987e-015
rhumerus 26.9053 -15.3071 -28.6482
rradius 126.162
rwrist -56.8544
rhand 3.89931 -21.7473
rfingers 7.12502
rthumb 29.3196 -409.456
lclavicle -1.86361e-014 -8.19987e-015
lhumerus 24.7556 -8.06613 36.8449
lradius 126.346
lwrist 63.3923
lhand -9.39671 -34.1923
lfingers 7.12502
lthumb 16.5645 -4.87929
rfemur 13.1684 -2.48033 18.9364
rtibia -3.53628
rfoot -13.6332 -9.23321
rtoes 4.79304
lfemur 19.8901 -4.39141 -13.732
ltibia -17.776
lfoot -2.96217 18.4733
ltoes -12.404
771
root -1.07906 18.1296 5.62782 -2.56856 -4.07642 -3.41268
lowerback 11.9149 -0.81936 1.3571
upperback 2.66144 -0.855555 1.50714
thorax -3.8887 -0.433958 0.934433
lowerneck 2.10393 -1.84805 -0.97082
upperneck 42.7829 -4.57345 4.22636
head 14.7124 -1.74414 1.45227
rclavicle 1.27968e-014 -2.23384e-014
rhumerus 25.5393 -13.0594 -27.5288
rradius 125.189
rwrist -57.1351
rhand 1.48199 -22.9589
rfingers 7.12502
rthumb 27.0091 -411.048
lclavicle 1.27968e-014 -2.23384e-014
lhumerus 24.5602 -7.73764 36.7019
lradius 126.436
lwrist 64.0156
lhand -11.1875 -34.0931
lfingers 7.12502
lthumb 14.8399 -4.64451
rfemur 13.3065 -2.03234 18.9342
rtibia -3.83056
rfoot -13.4694 -9.41232
rtoes 4.77532
lfemur 20.0151 -4.29715 -13.8147
ltibia -17.6734
lfoot -3.11556 18.7627
ltoes -12.1144
772
root -1.06577 18.1301 5.61577 -2.72556 -4.40903 -3.38214
lowerback 11.8735 -0.70366 1.20715
upperback 2.95187 -0.73052 1.45187
thorax -3.56225 -0.370709 0.938705
lowerneck 1.79461 -1.79569 -1.42381
upperneck 42.5295 -4.55516 4.58672
head 14.6684 -1.76395 1.68084
rclavicle 8.78457e-015 -4.19933e-015
rhumerus 24.927 -12.1152 -27.0395
rradius 125.846
rwrist -58.1082
rhand -1.61909 -23.9872
rfingers 7.12502
rthumb 24.0387 -412.502
lclavicle 8.78457e-015 -4.19933e-015
lhumerus 24.6046 -6.34854 37.2649
lradius 127.225
lwrist 65.0173
lhand -13.3593 -32.7178
lfingers 7.12502
lthumb 12.7468 -3.12685
rfemur 13.5302 -1.68738 18.8861
rtibia -4.12383
rfoot -13.3281 -9.64422
rtoes 4.28316
lfemur 20.1841 -4.19654 -13.9205
ltibia -17.6182
lfoot -3.19122 19.004
ltoes -11.6257
773
root -1.0553 18.1315 5.60215 -2.8701 -4.6679 -3.31096
lowerback 11.6032 -0.616396 0.859131
upperback 3.51517 -0.671441 1.49942
thorax -2.82302 -0.340644 1.16633
lowerneck 1.16131 -1.75035 -1.6256
upperneck 42.3222 -4.37699 4.41056
head 14.686 -1.7281 1.65133
rclavicle 9.24815e-015 8.09426e-015
rhumerus 25.2565 -12.8747 -28.0911
rradius 127.584
rwrist -57.8529
rhand -0.268555 -23.6362
rfingers 7.12502
rthumb 25.3331 -411.974
lclavicle 9.24815e-015 8.09426e-015
lhumerus 24.8704 -4.14583 38.4759
lradius 128.501
lwrist 65.3156
lhand -13.8198 -33.8488
lfingers 7.12502
lthumb 12.3029 -4.23076
rfemur 13.7091 -1.41576 18.8008
rtibia -4.34826
rfoot -13.1822 -9.84042
rtoes 3.89116
lfemur 20.3162 -4.07407 -14.0441
ltibia -17.5965
lfoot -3.26907 19.1746
ltoes -11.0177
774
root -1.04754 18.133 5.5899 -2.90995 -4.84944 -3.29391
lowerback 12.2277 -0.506275 0.931446
upperback 3.38611 -0.506616 1.40339
thorax -3.30259 -0.25871 1.01127
lowerneck 1.36083 -1.77304 -1.52722
upperneck 42.3558 -4.21904 3.88971
head 14.6328 -1.70525 1.43346
rclavicle -2.09811e-015 -9.30561e-015
rhumerus 25.015 -13.7959 -29.6306
rradius 129.76
rwrist -57.4488
rhand 0.469293 -17.979
rfingers 7.12502
rthumb 26.0398 -406.214
lclavicle -2.09811e-015 -9.30561e-015
lhumerus 24.9373 -2.77036 39.8591
lradius 130.162
lwrist 63.9682
lhand -13.6994 -35.2679
lfingers 7.12502
lthumb 12.419 -5.65686
rfemur 13.7324 -1.22907 18.7775
rtibia -4.46544
rfoot -13.0823 -9.92936
rtoes 4.00813
lfemur 20.3211 -3.84306 -14.0606
ltibia -17.577
lfoot -3.25229 19.1482
ltoes -10.5649
